<svg xmlns="http://www.w3.org/2000/svg" width="1600" height="1600" viewBox="0 0 49 49" shape-rendering="crispEdges"><path fill="#fffdfd" d="M0 0h49v49H0z"/><path stroke="#2f1723" d="M4 4.5h7m1 0h2m2 0h1m2 0h2m2 0h2m4 0h1m2 0h1m1 0h3m1 0h7M4 5.5h1m5 0h1m1 0h5m1 0h1m1 0h2m1 0h1m5 0h3m2 0h1m3 0h1m5 0h1M4 6.5h1m1 0h3m1 0h1m1 0h1m4 0h2m2 0h1m5 0h3m2 0h1m5 0h1m1 0h3m1 0h1M4 7.5h1m1 0h3m1 0h1m3 0h2m2 0h2m2 0h3m1 0h1m1 0h1m1 0h2m2 0h1m3 0h1m1 0h3m1 0h1M4 8.5h1m1 0h3m1 0h1m3 0h4m2 0h6m6 0h1m2 0h2m1 0h1m1 0h3m1 0h1M4 9.5h1m5 0h1m1 0h2m1 0h7m1 0h1m3 0h2m1 0h4m2 0h1m1 0h1m5 0h1M4 10.5h7m1 0h1m1 0h1m1 0h1m1 0h1m1 0h1m1 0h1m1 0h1m1 0h1m1 0h1m1 0h1m1 0h1m1 0h1m1 0h1m1 0h7M12 11.5h1m2 0h1m2 0h2m3 0h1m2 0h1m5 0h1M6 12.5h3m1 0h1m1 0h1m1 0h3m1 0h2m2 0h3m3 0h4m1 0h1m2 0h4m2 0h3M4 13.5h3m2 0h1m4 0h1m1 0h1m3 0h1m1 0h6m1 0h2m1 0h9m1 0h1m1 0h1M8 14.5h5m1 0h1m2 0h5m3 0h5m1 0h4m1 0h1m1 0h1M4 15.5h1m2 0h1m9 0h1m1 0h2m1 0h1m1 0h1m6 0h2m1 0h3m1 0h2m1 0h1m2 0h1M4 16.5h1m1 0h3m1 0h3m2 0h1m2 0h2m3 0h1m2 0h2m1 0h1m1 0h3m1 0h1m1 0h1m1 0h1m1 0h2m1 0h1M4 17.5h2m7 0h1m2 0h1m2 0h1m1 0h2m1 0h2m1 0h1m2 0h2m1 0h2m1 0h2m1 0h6M5 18.5h2m1 0h3m1 0h4m2 0h3m6 0h1m1 0h4m1 0h2m1 0h1m2 0h2M5 19.5h1m1 0h3m1 0h2m2 0h6m1 0h2m1 0h1m5 0h1m3 0h2m1 0h4m1 0h1M4 20.5h1m1 0h7m4 0h1m1 0h1m5 0h1m5 0h1m1 0h1m1 0h3m1 0h1m2 0h1M4 21.5h3m1 0h2m1 0h1m2 0h2m1 0h1m1 0h5m1 0h1m1 0h2m3 0h5m1 0h3m1 0h3M7 22.5h1m1 0h2m3 0h1m2 0h1m1 0h2m8 0h5m2 0h1m3 0h1m2 0h1M7 23.5h2m2 0h1m1 0h2m1 0h1m4 0h1m1 0h1m2 0h1m1 0h2m1 0h6m3 0h2m2 0h1M4 24.5h1m3 0h1m1 0h1m3 0h1m2 0h1m1 0h1m1 0h1m3 0h1m1 0h4m4 0h1m5 0h2m1 0h1M7 25.5h1m1 0h1m2 0h1m2 0h3m3 0h1m1 0h1m1 0h2m1 0h3m1 0h7m1 0h2m1 0h2M4 26.5h2m2 0h1m1 0h1m1 0h1m1 0h3m1 0h1m2 0h2m1 0h2m4 0h2m2 0h1m1 0h3m1 0h1M4 27.5h3m1 0h2m1 0h1m3 0h1m1 0h2m2 0h2m2 0h1m3 0h2m1 0h1m3 0h1m3 0h2M4 28.5h1m1 0h3m1 0h7m1 0h1m2 0h1m2 0h2m4 0h1m2 0h1m1 0h1m6 0h2M5 29.5h3m5 0h1m3 0h6m2 0h1m2 0h1m1 0h1m1 0h2m1 0h1m1 0h2m1 0h2m1 0h2M7 30.5h1m2 0h1m1 0h4m1 0h1m1 0h1m1 0h1m2 0h3m2 0h1m1 0h2m1 0h1m1 0h1m1 0h1m4 0h1M5 31.5h2m4 0h2m1 0h2m4 0h2m3 0h1m9 0h4m1 0h2M4 32.5h1m2 0h1m2 0h3m3 0h3m1 0h3m1 0h1m2 0h3m1 0h1m1 0h1m1 0h2m1 0h1m2 0h2m1 0h1M4 33.5h2m2 0h1m6 0h1m1 0h2m1 0h1m1 0h3m1 0h4m1 0h4m2 0h1m1 0h2m3 0h1M4 34.5h1m2 0h1m1 0h2m1 0h4m1 0h2m2 0h1m2 0h4m1 0h2m2 0h1m2 0h3m2 0h1M4 35.5h1m1 0h1m2 0h1m1 0h2m2 0h1m1 0h2m2 0h3m1 0h2m1 0h1m1 0h1m1 0h1m1 0h1m2 0h2m1 0h2M4 36.5h1m5 0h3m1 0h3m2 0h4m1 0h1m2 0h1m2 0h1m2 0h1m2 0h5m1 0h3M12 37.5h3m1 0h1m1 0h1m1 0h1m5 0h1m1 0h1m5 0h1m1 0h1m3 0h2m1 0h2M4 38.5h7m6 0h2m2 0h3m1 0h1m4 0h3m1 0h3m1 0h1m1 0h2M4 39.5h1m5 0h1m3 0h1m1 0h3m1 0h8m1 0h2m5 0h1m3 0h2m1 0h2M4 40.5h1m1 0h3m1 0h1m1 0h1m1 0h2m2 0h4m2 0h2m1 0h1m1 0h2m3 0h1m1 0h5m1 0h2M4 41.5h1m1 0h3m1 0h1m1 0h2m3 0h1m2 0h4m1 0h1m2 0h1m1 0h1m4 0h3m1 0h1m4 0h1M4 42.5h1m1 0h3m1 0h1m1 0h3m1 0h3m2 0h4m1 0h2m3 0h1m1 0h9m1 0h1M4 43.5h1m5 0h1m3 0h4m2 0h2m2 0h2m1 0h3m1 0h2m3 0h1m1 0h1m1 0h2m1 0h1M4 44.5h7m3 0h1m2 0h2m1 0h1m1 0h1m1 0h3m2 0h1m1 0h3m1 0h1m1 0h1m1 0h4"/></svg>
